<svg xmlns="http://www.w3.org/2000/svg" viewBox="0 0 385 220" overflow="hidden" preserveAspectRatio="xMidYMid meet" id="eaf-5c32-0"><!-- Created with Expressive Animator v1.3.4 | https://expressive.app/expressive-animator/ --><defs><clipPath id="eaf-5c32-1"><rect x="0" y="0" width="385" height="220"></rect></clipPath><linearGradient gradientUnits="userSpaceOnUse" x1="0" y1="3" x2="12" y2="3" id="eaf-5c32-2"><stop stop-color="#0000" offset="0.0385"></stop><stop stop-color="#000" offset="0.4519"></stop></linearGradient><linearGradient gradientUnits="userSpaceOnUse" x1="2" y1="3" x2="10.5" y2="4" id="eaf-5c32-3"><stop stop-color="#0000" offset="0.3123"></stop><stop stop-color="#000" offset="0.6635"></stop></linearGradient><linearGradient gradientUnits="userSpaceOnUse" x1="0" y1="3" x2="12" y2="3" id="eaf-5c32-4"><stop stop-color="#0000" offset="0.0385"></stop><stop stop-color="#000" offset="0.4519"></stop></linearGradient><linearGradient gradientUnits="userSpaceOnUse" x1="2" y1="3" x2="10.5" y2="4" id="eaf-5c32-5"><stop stop-color="#0000" offset="0.3123"></stop><stop stop-color="#000" offset="0.6635"></stop></linearGradient><linearGradient gradientUnits="userSpaceOnUse" x1="0" y1="3" x2="12" y2="3" id="eaf-5c32-6"><stop stop-color="#0000" offset="0.0385"></stop><stop stop-color="#000" offset="0.4519"></stop></linearGradient><linearGradient gradientUnits="userSpaceOnUse" x1="2" y1="3" x2="10.5" y2="4" id="eaf-5c32-7"><stop stop-color="#0000" offset="0.3123"></stop><stop stop-color="#000" offset="0.6635"></stop></linearGradient><linearGradient gradientUnits="userSpaceOnUse" x1="0" y1="3" x2="12" y2="3" id="eaf-5c32-8"><stop stop-color="#0000" offset="0.0385"></stop><stop stop-color="#000" offset="0.4519"></stop></linearGradient><linearGradient gradientUnits="userSpaceOnUse" x1="2" y1="3" x2="10.5" y2="4" id="eaf-5c32-9"><stop stop-color="#0000" offset="0.3123"></stop><stop stop-color="#000" offset="0.6635"></stop></linearGradient><linearGradient gradientUnits="userSpaceOnUse" x1="0" y1="3" x2="12" y2="3" id="eaf-5c32-10"><stop stop-color="#0000" offset="0.0385"></stop><stop stop-color="#000" offset="0.4519"></stop></linearGradient><linearGradient gradientUnits="userSpaceOnUse" x1="2" y1="3" x2="10.5" y2="4" id="eaf-5c32-11"><stop stop-color="#0000" offset="0.3123"></stop><stop stop-color="#000" offset="0.6635"></stop></linearGradient><linearGradient gradientUnits="userSpaceOnUse" x1="0" y1="3" x2="12" y2="3" id="eaf-5c32-12"><stop stop-color="#0000" offset="0.0385"></stop><stop stop-color="#000" offset="0.4519"></stop></linearGradient><linearGradient gradientUnits="userSpaceOnUse" x1="2" y1="3" x2="10.5" y2="4" id="eaf-5c32-13"><stop stop-color="#0000" offset="0.3123"></stop><stop stop-color="#000" offset="0.6635"></stop></linearGradient><linearGradient gradientUnits="userSpaceOnUse" x1="0" y1="3" x2="12" y2="3" id="eaf-5c32-14"><stop stop-color="#0000" offset="0.0385"></stop><stop stop-color="#000" offset="0.4519"></stop></linearGradient><linearGradient gradientUnits="userSpaceOnUse" x1="2" y1="3" x2="10.5" y2="4" id="eaf-5c32-15"><stop stop-color="#0000" offset="0.3123"></stop><stop stop-color="#000" offset="0.6635"></stop></linearGradient><linearGradient gradientUnits="userSpaceOnUse" x1="152.765" y1="147.007" x2="152.793" y2="135.007" id="eaf-5c32-16"><stop stop-color="#0000" offset="0.0385"></stop><stop stop-color="#000" offset="0.4519"></stop></linearGradient><linearGradient gradientUnits="userSpaceOnUse" x1="152.77" y1="145.007" x2="153.79" y2="136.509" id="eaf-5c32-17"><stop stop-color="#0000" offset="0.3123"></stop><stop stop-color="#000" offset="0.6635"></stop></linearGradient><linearGradient gradientUnits="userSpaceOnUse" x1="0" y1="3" x2="12" y2="3" id="eaf-5c32-18"><stop stop-color="#0000" offset="0.0385"></stop><stop stop-color="#000" offset="0.4519"></stop></linearGradient><linearGradient gradientUnits="userSpaceOnUse" x1="2" y1="3" x2="10.5" y2="4" id="eaf-5c32-19"><stop stop-color="#0000" offset="0.3123"></stop><stop stop-color="#000" offset="0.6635"></stop></linearGradient><linearGradient gradientUnits="userSpaceOnUse" x1="0" y1="3" x2="12" y2="3" id="eaf-5c32-20"><stop stop-color="#0000" offset="0.0385"></stop><stop stop-color="#000" offset="0.4519"></stop></linearGradient><linearGradient gradientUnits="userSpaceOnUse" x1="2" y1="3" x2="10.5" y2="4" id="eaf-5c32-21"><stop stop-color="#0000" offset="0.3123"></stop><stop stop-color="#000" offset="0.6635"></stop></linearGradient><linearGradient gradientUnits="userSpaceOnUse" x1="126.765" y1="59.0112" x2="126.81" y2="71.0111" id="eaf-5c32-22"><stop stop-color="#0000" offset="0.0385"></stop><stop stop-color="#000" offset="0.4519"></stop></linearGradient><linearGradient gradientUnits="userSpaceOnUse" x1="126.773" y1="61.0112" x2="125.804" y2="69.5149" id="eaf-5c32-23"><stop stop-color="#0000" offset="0.3123"></stop><stop stop-color="#000" offset="0.6635"></stop></linearGradient><linearGradient gradientUnits="userSpaceOnUse" x1="0" y1="3" x2="12" y2="3" id="eaf-5c32-24"><stop stop-color="#0000" offset="0.0385"></stop><stop stop-color="#000" offset="0.4519"></stop></linearGradient><linearGradient gradientUnits="userSpaceOnUse" x1="2" y1="3" x2="10.5" y2="4" id="eaf-5c32-25"><stop stop-color="#0000" offset="0.3123"></stop><stop stop-color="#000" offset="0.6635"></stop></linearGradient><linearGradient gradientUnits="userSpaceOnUse" x1="0" y1="3" x2="11.9999" y2="3" id="eaf-5c32-26"><stop stop-color="#0000" offset="0.0385"></stop><stop stop-color="#000" offset="0.4519"></stop></linearGradient><linearGradient gradientUnits="userSpaceOnUse" x1="2" y1="3" x2="10.4999" y2="4" id="eaf-5c32-27"><stop stop-color="#0000" offset="0.3123"></stop><stop stop-color="#000" offset="0.6635"></stop></linearGradient><linearGradient gradientUnits="userSpaceOnUse" x1="0" y1="3" x2="12" y2="3" id="eaf-5c32-28"><stop stop-color="#0000" offset="0.0385"></stop><stop stop-color="#000" offset="0.4519"></stop></linearGradient><linearGradient gradientUnits="userSpaceOnUse" x1="2" y1="3" x2="10.5" y2="4" id="eaf-5c32-29"><stop stop-color="#0000" offset="0.3123"></stop><stop stop-color="#000" offset="0.6635"></stop></linearGradient><linearGradient gradientUnits="userSpaceOnUse" x1="0" y1="3" x2="12" y2="3" id="eaf-5c32-30"><stop stop-color="#0000" offset="0.0385"></stop><stop stop-color="#000" offset="0.4519"></stop></linearGradient><linearGradient gradientUnits="userSpaceOnUse" x1="2" y1="3" x2="10.5" y2="4" id="eaf-5c32-31"><stop stop-color="#0000" offset="0.3123"></stop><stop stop-color="#000" offset="0.6635"></stop></linearGradient><linearGradient gradientUnits="userSpaceOnUse" x1="88.7651" y1="110" x2="100.765" y2="110" id="eaf-5c32-32"><stop stop-color="#0000" offset="0.0385"></stop><stop stop-color="#000" offset="0.4519"></stop></linearGradient><linearGradient gradientUnits="userSpaceOnUse" x1="90.7651" y1="110" x2="99.2651" y2="111" id="eaf-5c32-33"><stop stop-color="#0000" offset="0.3123"></stop><stop stop-color="#000" offset="0.6635"></stop></linearGradient><linearGradient gradientUnits="userSpaceOnUse" x1="255.681" y1="44.6431" x2="704.52" y2="59.0737" id="eaf-5c32-34"><stop stop-color="#1b1b1b" offset="0.23"><animate keyTimes="0;0.2665;1" calcMode="linear" dur="2666.6667ms" repeatCount="indefinite" attributeName="stop-color" values="#1b1b1b;#1c1c1c;#1c1c1c"></animate><animate keyTimes="0;0.2665;0.3335;1" calcMode="linear" dur="2666.6667ms" repeatCount="indefinite" attributeName="offset" values="0.23;0.23;0;0"></animate></stop><stop stop-color="#1b1b1b" offset="0.47"><animate keyTimes="0;0.2665;1" calcMode="linear" dur="2666.6667ms" repeatCount="indefinite" attributeName="stop-color" values="#1b1b1b;#5cff77;#5cff77"></animate><animate keyTimes="0;0.2665;0.3335;0.4;1" calcMode="linear" dur="2666.6667ms" repeatCount="indefinite" attributeName="offset" values="0.47;0.47;0.21;0;0"></animate></stop><stop stop-color="#1b1b1b" offset="0.72"><animate keyTimes="0;0.2665;1" calcMode="linear" dur="2666.6667ms" repeatCount="indefinite" attributeName="stop-color" values="#1b1b1b;#000;#000"></animate><animate keyTimes="0;0.2665;0.3335;0.4;1" calcMode="linear" dur="2666.6667ms" repeatCount="indefinite" attributeName="offset" values="0.72;0.72;0.42;0;0"></animate></stop></linearGradient><linearGradient gradientUnits="userSpaceOnUse" x1="-216" y1="110.756" x2="89.8127" y2="112.721" id="eaf-5c32-35"><stop stop-color="#1b1b1b" offset="0"><animate keyTimes="0;0.6;0.6665;1" calcMode="linear" dur="2666.6667ms" repeatCount="indefinite" attributeName="stop-color" values="#1b1b1b;#4da3ff;#000;#000"></animate><animate keyTimes="0;0.6;0.6665;0.7335;0.8;1" calcMode="linear" dur="2666.6667ms" repeatCount="indefinite" attributeName="offset" values="0;0;0.29;0.48;0.49;0.49"></animate></stop><stop stop-color="#1b1b1b" offset="0.27"><animate keyTimes="0;0.6;0.6665;1" calcMode="linear" dur="2666.6667ms" repeatCount="indefinite" attributeName="stop-color" values="#1b1b1b;#000;#4da3ff;#4da3ff"></animate><animate keyTimes="0;0.6;0.6665;0.7335;0.8;1" calcMode="linear" dur="2666.6667ms" repeatCount="indefinite" attributeName="offset" values="0.27;0.27;0.51;0.76;1;1"></animate></stop><stop stop-color="#1b1b1b" offset="0.27"><animate keyTimes="0;0.6;1" calcMode="linear" dur="2666.6667ms" repeatCount="indefinite" attributeName="stop-color" values="#1b1b1b;#000;#000"></animate><animate keyTimes="0;0.6;0.6665;0.7335;1" calcMode="linear" dur="2666.6667ms" repeatCount="indefinite" attributeName="offset" values="0.27;0.27;0.79;1;1"></animate></stop></linearGradient><linearGradient gradientUnits="userSpaceOnUse" x1="230.765" y1="145.021" x2="310.357" y2="181.204" id="eaf-5c32-36"><stop stop-color="#000" offset="0.75"><animate keyTimes="0;0.4;0.4665;0.5335;1" calcMode="linear" dur="2666.6667ms" repeatCount="indefinite" attributeName="offset" values="0.75;0.73;0.24;0;0"></animate></stop><stop stop-color="#000" offset="1"><animate keyTimes="0;0.4;1" calcMode="linear" dur="2666.6667ms" repeatCount="indefinite" attributeName="stop-color" values="#000;#9fff29;#9fff29"></animate><animate keyTimes="0;0.4;0.4665;0.5335;0.6;1" calcMode="linear" dur="2666.6667ms" repeatCount="indefinite" attributeName="offset" values="1;1;0.5;0.28;0;0"></animate></stop><stop stop-color="#000" offset="1"><animate keyTimes="0;0.4;0.4665;0.5335;1" calcMode="linear" dur="2666.6667ms" repeatCount="indefinite" attributeName="stop-color" values="#000;#9fff29;#000;#0e1704;#0e1704"></animate><animate keyTimes="0;0.4;0.4665;0.5335;0.6;1" calcMode="linear" dur="2666.6667ms" repeatCount="indefinite" attributeName="offset" values="1;1;0.72;0.48;0;0"></animate></stop><stop stop-color="#000" offset="1"><animate keyTimes="0;0.4;0.4665;1" calcMode="linear" dur="2666.6667ms" repeatCount="indefinite" attributeName="stop-color" values="#000;#9fff29;#000;#000"></animate><animate keyTimes="0;0.4;0.4665;1" calcMode="linear" dur="2666.6667ms" repeatCount="indefinite" attributeName="offset" values="1;1;0.72;0.72"></animate></stop></linearGradient><linearGradient gradientUnits="userSpaceOnUse" x1="293.741" y1="89.8311" x2="545.458" y2="294.804" id="eaf-5c32-37"><stop stop-color="#1b1b1b" offset="0.75"><animate keyTimes="0;0.6665;0.7335;0.8;0.8665;1" calcMode="linear" dur="2666.6667ms" repeatCount="indefinite" attributeName="offset" values="0.75;0.75;0.53;0.21;0;0"></animate></stop><stop stop-color="#1b1b1b" offset="1"><animate keyTimes="0;0.6665;1" calcMode="linear" dur="2666.6667ms" repeatCount="indefinite" attributeName="stop-color" values="#1b1b1b;#b303ff;#b303ff"></animate><animate keyTimes="0;0.6665;0.7335;0.8;0.8665;0.9335;1" calcMode="linear" dur="2666.6667ms" repeatCount="indefinite" attributeName="offset" values="1;1;0.75;0.51;0.22;0;0"></animate></stop><stop stop-color="#1b1b1b" offset="1"><animate keyTimes="0;0.6665;0.7335;1" calcMode="linear" dur="2666.6667ms" repeatCount="indefinite" attributeName="stop-color" values="#1b1b1b;#b303ff;#000;#000"></animate><animate keyTimes="0;0.6665;0.7335;0.8;0.8665;0.9335;1" calcMode="linear" dur="2666.6667ms" repeatCount="indefinite" attributeName="offset" values="1;1;0.98;0.77;0.49;0.48;0.48"></animate></stop></linearGradient><linearGradient gradientUnits="userSpaceOnUse" x1="44.4584" y1="19.0356" x2="126.924" y2="59.0692" id="eaf-5c32-38"><stop stop-color="#ff1717" offset="0"><animate keyTimes="0;0.0665;1" calcMode="linear" dur="2666.6667ms" repeatCount="indefinite" attributeName="stop-color" values="#ff1717;#000;#000"></animate><animate keyTimes="0;0.0665;0.1335;0.2;0.2665;1" calcMode="linear" dur="2666.6667ms" repeatCount="indefinite" attributeName="offset" values="0;0;0.26;0.52;1;1"></animate></stop><stop stop-color="#000" offset="0.26"><animate keyTimes="0;0.0665;1" calcMode="linear" dur="2666.6667ms" repeatCount="indefinite" attributeName="stop-color" values="#000;#ff1717;#ff1717"></animate><animate keyTimes="0;0.0665;0.1335;0.2;0.2665;1" calcMode="linear" dur="2666.6667ms" repeatCount="indefinite" attributeName="offset" values="0.26;0.25;0.48;0.79;1;1"></animate></stop><stop stop-color="#000" offset="0.26"><animate keyTimes="0;0.0665;0.1335;0.2;1" calcMode="linear" dur="2666.6667ms" repeatCount="indefinite" attributeName="offset" values="0.26;0.5;0.76;1;1"></animate></stop></linearGradient><linearGradient gradientUnits="userSpaceOnUse" x1="152.765" y1="145.5" x2="152.765" y2="302.5" id="eaf-5c32-39"><stop stop-color="#000" offset="0.72"><animate keyTimes="0;0.2;0.2665;0.3335;0.4;1" calcMode="linear" dur="2666.6667ms" repeatCount="indefinite" attributeName="offset" values="0.72;0.72;0.46;0.23;0;0"></animate></stop><stop stop-color="#ffbc40" offset="1"><animate keyTimes="0;0.2;0.2665;0.3335;0.4;0.4665;1" calcMode="linear" dur="2666.6667ms" repeatCount="indefinite" attributeName="offset" values="1;1;0.73;0.48;0.24;0;0"></animate></stop><stop stop-color="#ffbc40" offset="1"><animate keyTimes="0;0.2;0.2665;1" calcMode="linear" dur="2666.6667ms" repeatCount="indefinite" attributeName="stop-color" values="#ffbc40;#ffbc40;#000;#000"></animate><animate keyTimes="0;0.2;0.2665;0.3335;0.4;0.4665;1" calcMode="linear" dur="2666.6667ms" repeatCount="indefinite" attributeName="offset" values="1;1;0.99;0.73;0.47;0;0"></animate></stop></linearGradient><clipPath id="eaf-5c32-40"><path d="m0 0l385 0l0 220l-385 0l0 -220z" clip-rule="evenodd"></path></clipPath></defs><g clip-path="url('#eaf-5c32-1')" style="isolation: isolate;"><g><g clip-path="url('#eaf-5c32-40')"><g><rect fill="#6f6f6f" width="12" height="6" rx="1" transform="matrix(0.0037 1 -1 0.0037 207.765 59)"></rect><rect fill="url('#eaf-5c32-2')" fill-opacity="0.22" width="12" height="6" rx="1" transform="matrix(0.0037 1 -1 0.0037 207.765 59)"></rect><rect fill="url('#eaf-5c32-3')" fill-opacity="0.2" width="12" height="6" rx="1" transform="matrix(0.0037 1 -1 0.0037 207.765 59)"></rect><rect fill="#6f6f6f" width="12" height="6" rx="1" transform="matrix(0.0023 -1 1 0.0023 201.765 145)"></rect><rect fill="url('#eaf-5c32-4')" fill-opacity="0.22" width="12" height="6" rx="1" transform="matrix(0.0023 -1 1 0.0023 201.765 145)"></rect><rect fill="url('#eaf-5c32-5')" fill-opacity="0.2" width="12" height="6" rx="1" transform="matrix(0.0023 -1 1 0.0023 201.765 145)"></rect><rect fill="#6f6f6f" width="12" height="6" rx="1" transform="matrix(0.0037 1 -1 0.0037 129.765 59)"></rect><rect fill="url('#eaf-5c32-6')" fill-opacity="0.22" width="12" height="6" rx="1" transform="matrix(0.0037 1 -1 0.0037 129.765 59)"></rect><rect fill="url('#eaf-5c32-7')" fill-opacity="0.2" width="12" height="6" rx="1" transform="matrix(0.0037 1 -1 0.0037 129.765 59)"></rect><rect fill="#6f6f6f" width="12" height="6" rx="1" transform="matrix(0.0023 -1 1 0.0023 123.765 145)"></rect><rect fill="url('#eaf-5c32-8')" fill-opacity="0.22" width="12" height="6" rx="1" transform="matrix(0.0023 -1 1 0.0023 123.765 145)"></rect><rect fill="url('#eaf-5c32-9')" fill-opacity="0.2" width="12" height="6" rx="1" transform="matrix(0.0023 -1 1 0.0023 123.765 145)"></rect><rect fill="#6f6f6f" width="12" height="6" rx="1" transform="matrix(0.0023 -1 1 0.0023 252.765 145)"></rect><rect fill="url('#eaf-5c32-10')" fill-opacity="0.22" width="12" height="6" rx="1" transform="matrix(0.0023 -1 1 0.0023 252.765 145)"></rect><rect fill="url('#eaf-5c32-11')" fill-opacity="0.2" width="12" height="6" rx="1" transform="matrix(0.0023 -1 1 0.0023 252.765 145)"></rect><rect fill="#6f6f6f" width="12" height="6" rx="1" transform="matrix(0.0023 -1 1 0.0023 227.765 145)"></rect><rect fill="url('#eaf-5c32-12')" fill-opacity="0.22" width="12" height="6" rx="1" transform="matrix(0.0023 -1 1 0.0023 227.765 145)"></rect><rect fill="url('#eaf-5c32-13')" fill-opacity="0.2" width="12" height="6" rx="1" transform="matrix(0.0023 -1 1 0.0023 227.765 145)"></rect><rect fill="#6f6f6f" width="12" height="6" rx="1" transform="matrix(0.0023 -1 1 0.0023 175.765 145)"></rect><rect fill="url('#eaf-5c32-14')" fill-opacity="0.22" width="12" height="6" rx="1" transform="matrix(0.0023 -1 1 0.0023 175.765 145)"></rect><rect fill="url('#eaf-5c32-15')" fill-opacity="0.2" width="12" height="6" rx="1" transform="matrix(0.0023 -1 1 0.0023 175.765 145)"></rect><path fill="#6f6f6f" d="m150.769 145.488c-0.553 -0.001 -0.999 -0.45 -0.998 -1.002l0.023 -10c0.002 -0.552 0.45 -0.999 1.003 -0.998l4 0.01c0.552 0.001 0.999 0.45 0.997 1.002l-0.023 10c-0.001 0.552 -0.45 0.999 -1.002 0.998l-4 -0.01z"></path><path fill="url('#eaf-5c32-16')" fill-opacity="0.22" d="m150.769 145.488c-0.553 -0.001 -0.999 -0.45 -0.998 -1.002l0.023 -10c0.002 -0.552 0.45 -0.999 1.003 -0.998l4 0.01c0.552 0.001 0.999 0.45 0.997 1.002l-0.023 10c-0.001 0.552 -0.45 0.999 -1.002 0.998l-4 -0.01z"></path><path fill="url('#eaf-5c32-17')" fill-opacity="0.2" d="m150.769 145.488c-0.553 -0.001 -0.999 -0.45 -0.998 -1.002l0.023 -10c0.002 -0.552 0.45 -0.999 1.003 -0.998l4 0.01c0.552 0.001 0.999 0.45 0.997 1.002l-0.023 10c-0.001 0.552 -0.45 0.999 -1.002 0.998l-4 -0.01z"></path><rect fill="#6f6f6f" width="12" height="6" rx="1" transform="matrix(0.0037 1 -1 0.0037 258.765 59)"></rect><rect fill="url('#eaf-5c32-18')" fill-opacity="0.22" width="12" height="6" rx="1" transform="matrix(0.0037 1 -1 0.0037 258.765 59)"></rect><rect fill="url('#eaf-5c32-19')" fill-opacity="0.2" width="12" height="6" rx="1" transform="matrix(0.0037 1 -1 0.0037 258.765 59)"></rect><rect fill="#6f6f6f" width="12" height="6" rx="1" transform="matrix(0.0037 1 -1 0.0037 233.765 59)"></rect><rect fill="url('#eaf-5c32-20')" fill-opacity="0.22" width="12" height="6" rx="1" transform="matrix(0.0037 1 -1 0.0037 233.765 59)"></rect><rect fill="url('#eaf-5c32-21')" fill-opacity="0.2" width="12" height="6" rx="1" transform="matrix(0.0037 1 -1 0.0037 233.765 59)"></rect><path fill="#6f6f6f" d="m180.765 59.0037c0.552 -0.002 1.002 0.444 1.004 0.9963l0.037 9.9999c0.002 0.5523 -0.444 1.0017 -0.996 1.0037l-4 0.015c-0.552 0.002 -1.002 -0.444 -1.004 -0.9963l-0.037 -9.9999c-0.002 -0.5523 0.444 -1.0017 0.996 -1.0037l4 -0.015z"></path><path fill="url('#eaf-5c32-22')" fill-opacity="0.22" d="m180.765 59.0037c0.552 -0.002 1.002 0.444 1.004 0.9963l0.037 9.9999c0.002 0.5523 -0.444 1.0017 -0.996 1.0037l-4 0.015c-0.552 0.002 -1.002 -0.444 -1.004 -0.9963l-0.037 -9.9999c-0.002 -0.5523 0.444 -1.0017 0.996 -1.0037l4 -0.015z"></path><path fill="url('#eaf-5c32-23')" fill-opacity="0.2" d="m180.765 59.0037c0.552 -0.002 1.002 0.444 1.004 0.9963l0.037 9.9999c0.002 0.5523 -0.444 1.0017 -0.996 1.0037l-4 0.015c-0.552 0.002 -1.002 -0.444 -1.004 -0.9963l-0.037 -9.9999c-0.002 -0.5523 0.444 -1.0017 0.996 -1.0037l4 -0.015z"></path><rect fill="#6f6f6f" width="12" height="6" rx="1" transform="matrix(0.0037 1 -1 0.0037 155.765 59)"></rect><rect fill="url('#eaf-5c32-24')" fill-opacity="0.22" width="12" height="6" rx="1" transform="matrix(0.0037 1 -1 0.0037 155.765 59)"></rect><rect fill="url('#eaf-5c32-25')" fill-opacity="0.2" width="12" height="6" rx="1" transform="matrix(0.0037 1 -1 0.0037 155.765 59)"></rect><rect fill="#6f6f6f" width="12" height="6" rx="1" transform="translate(89.7651 87)"></rect><rect fill="url('#eaf-5c32-26')" fill-opacity="0.22" width="12" height="6" rx="1" transform="translate(89.7651 87)"></rect><rect fill="url('#eaf-5c32-27')" fill-opacity="0.2" width="12" height="6" rx="1" transform="translate(89.7651 87)"></rect><rect fill="#6f6f6f" width="12" height="6" rx="1" transform="matrix(-0.9999 -0.0145 0.0145 -0.9999 293.764 93.1738)"></rect><rect fill="url('#eaf-5c32-28')" fill-opacity="0.22" width="12" height="6" rx="1" transform="matrix(-0.9999 -0.0145 0.0145 -0.9999 293.764 93.1738)"></rect><rect fill="url('#eaf-5c32-29')" fill-opacity="0.2" width="12" height="6" rx="1" transform="matrix(-0.9999 -0.0145 0.0145 -0.9999 293.764 93.1738)"></rect><rect fill="#6f6f6f" width="12" height="6" rx="1" transform="matrix(-0.9999 -0.0145 0.0145 -0.9999 293.764 114.174)"></rect><rect fill="url('#eaf-5c32-30')" fill-opacity="0.22" width="12" height="6" rx="1" transform="matrix(-0.9999 -0.0145 0.0145 -0.9999 293.764 114.174)"></rect><rect fill="url('#eaf-5c32-31')" fill-opacity="0.2" width="12" height="6" rx="1" transform="matrix(-0.9999 -0.0145 0.0145 -0.9999 293.764 114.174)"></rect><path fill="#6f6f6f" d="m89.7651 110.5c0 -0.552 0.4478 -1 1 -1l9.9999 0c0.552 0 1 0.448 1 1l0 4c0 0.552 -0.448 1 -1 1l-9.9999 0c-0.5522 0 -1 -0.448 -1 -1l0 -4z"></path><path fill="url('#eaf-5c32-32')" fill-opacity="0.22" d="m89.7651 110.5c0 -0.552 0.4478 -1 1 -1l9.9999 0c0.552 0 1 0.448 1 1l0 4c0 0.552 -0.448 1 -1 1l-9.9999 0c-0.5522 0 -1 -0.448 -1 -1l0 -4z"></path><path fill="url('#eaf-5c32-33')" fill-opacity="0.2" d="m89.7651 110.5c0 -0.552 0.4478 -1 1 -1l9.9999 0c0.552 0 1 0.448 1 1l0 4c0 0.552 -0.448 1 -1 1l-9.9999 0c-0.5522 0 -1 -0.448 -1 -1l0 -4z"></path><rect fill="#232323" stroke="#2e2e2e" stroke-width="4" width="184" height="66" rx="8" transform="translate(99.7651 69)"></rect><path fill="#7e7e7e" d="m129.156 111l0 -16l6.312 0c1.214 0 2.248 0.2318 3.102 0.6953c0.854 0.4583 1.505 1.0964 1.953 1.9141c0.453 0.8125 0.68 1.75 0.68 2.8126c0 1.062 -0.23 2 -0.688 2.812c-0.458 0.813 -1.122 1.446 -1.992 1.899c-0.865 0.453 -1.912 0.679 -3.141 0.679l-4.023 0l0 -2.71l3.476 0c0.651 0 1.188 -0.112 1.61 -0.336c0.427 -0.23 0.745 -0.545 0.953 -0.946c0.213 -0.406 0.32 -0.872 0.32 -1.398c0 -0.5314 -0.107 -0.9949 -0.32 -1.3908c-0.208 -0.401 -0.526 -0.7109 -0.953 -0.9296c-0.427 -0.224 -0.969 -0.336 -1.625 -0.336l-2.281 0l0 13.2344l-3.383 0zm19.41 0.234c-1.214 0 -2.263 -0.257 -3.149 -0.773c-0.88 -0.521 -1.559 -1.245 -2.039 -2.172c-0.479 -0.932 -0.718 -2.013 -0.718 -3.242c0 -1.24 0.239 -2.323 0.718 -3.25c0.48 -0.932 1.159 -1.656 2.039 -2.172c0.886 -0.5208 1.935 -0.7812 3.149 -0.7812c1.213 0 2.26 0.2604 3.141 0.7812c0.885 0.516 1.567 1.24 2.046 2.172c0.48 0.927 0.719 2.01 0.719 3.25c0 1.229 -0.239 2.31 -0.719 3.242c-0.479 0.927 -1.161 1.651 -2.046 2.172c-0.881 0.516 -1.928 0.773 -3.141 0.773zm0.016 -2.578c0.552 0 1.013 -0.156 1.382 -0.468c0.37 -0.318 0.649 -0.751 0.836 -1.297c0.193 -0.547 0.289 -1.17 0.289 -1.868c0 -0.697 -0.096 -1.32 -0.289 -1.867c-0.187 -0.547 -0.466 -0.979 -0.836 -1.297c-0.369 -0.317 -0.83 -0.476 -1.382 -0.476c-0.558 0 -1.026 0.159 -1.407 0.476c-0.375 0.318 -0.659 0.75 -0.851 1.297c-0.188 0.547 -0.282 1.17 -0.282 1.867c0 0.698 0.094 1.321 0.282 1.868c0.192 0.546 0.476 0.979 0.851 1.297c0.381 0.312 0.849 0.468 1.407 0.468zm10.121 2.344l-3.266 -12l3.367 0l1.86 8.062l0.109 0l1.937 -8.062l3.305 0l1.969 8.016l0.101 0l1.829 -8.016l3.359 0l-3.258 12l-3.523 0l-2.063 -7.547l-0.148 0l-2.063 7.547l-3.515 0zm21.513 0.234c-1.234 0 -2.297 -0.25 -3.187 -0.75c-0.886 -0.505 -1.568 -1.218 -2.047 -2.14c-0.479 -0.927 -0.719 -2.024 -0.719 -3.289c0 -1.235 0.24 -2.318 0.719 -3.25c0.479 -0.933 1.154 -1.659 2.023 -2.18c0.875 -0.5208 1.901 -0.7812 3.078 -0.7812c0.792 0 1.529 0.1276 2.211 0.3828c0.688 0.25 1.287 0.6276 1.797 1.1324c0.516 0.506 0.917 1.141 1.203 1.907c0.287 0.76 0.43 1.651 0.43 2.671l0 0.915l-10.133 0l0 -2.063l7 0c0 -0.479 -0.104 -0.904 -0.312 -1.273c-0.209 -0.37 -0.498 -0.659 -0.867 -0.868c-0.365 -0.213 -0.789 -0.32 -1.274 -0.32c-0.505 0 -0.953 0.117 -1.344 0.352c-0.385 0.229 -0.687 0.539 -0.906 0.929c-0.219 0.386 -0.331 0.815 -0.336 1.289l0 1.961c0 0.594 0.11 1.107 0.328 1.539c0.224 0.433 0.539 0.766 0.946 1c0.406 0.235 0.888 0.352 1.445 0.352c0.37 0 0.708 -0.052 1.016 -0.156c0.307 -0.104 0.57 -0.261 0.789 -0.469c0.218 -0.208 0.385 -0.464 0.5 -0.766l3.078 0.203c-0.156 0.74 -0.477 1.386 -0.961 1.938c-0.479 0.547 -1.099 0.974 -1.86 1.281c-0.755 0.302 -1.627 0.453 -2.617 0.453zm7.68 -0.234l0 -12l3.227 0l0 2.094l0.125 0c0.218 -0.745 0.585 -1.3075 1.101 -1.6877c0.516 -0.3855 1.109 -0.5782 1.781 -0.5782c0.167 0 0.347 0.0104 0.539 0.0313c0.193 0.0208 0.362 0.0495 0.508 0.0859l0 2.9527c-0.156 -0.046 -0.372 -0.088 -0.648 -0.125c-0.276 -0.036 -0.529 -0.054 -0.758 -0.054c-0.49 0 -0.927 0.107 -1.313 0.32c-0.38 0.208 -0.682 0.5 -0.906 0.875c-0.219 0.375 -0.328 0.807 -0.328 1.297l0 6.789l-3.328 0zm13.912 0.234c-1.234 0 -2.297 -0.25 -3.187 -0.75c-0.886 -0.505 -1.568 -1.218 -2.047 -2.14c-0.479 -0.927 -0.719 -2.024 -0.719 -3.289c0 -1.235 0.24 -2.318 0.719 -3.25c0.479 -0.933 1.153 -1.659 2.023 -2.18c0.875 -0.5208 1.901 -0.7812 3.078 -0.7812c0.792 0 1.529 0.1276 2.211 0.3828c0.688 0.25 1.287 0.6276 1.797 1.1324c0.516 0.506 0.917 1.141 1.203 1.907c0.287 0.76 0.43 1.651 0.43 2.671l0 0.915l-10.133 0l0 -2.063l7 0c0 -0.479 -0.104 -0.904 -0.312 -1.273c-0.209 -0.37 -0.498 -0.659 -0.868 -0.868c-0.364 -0.213 -0.789 -0.32 -1.273 -0.32c-0.505 0 -0.953 0.117 -1.344 0.352c-0.385 0.229 -0.687 0.539 -0.906 0.929c-0.219 0.386 -0.331 0.815 -0.336 1.289l0 1.961c0 0.594 0.109 1.107 0.328 1.539c0.224 0.433 0.539 0.766 0.945 1c0.407 0.235 0.889 0.352 1.446 0.352c0.37 0 0.708 -0.052 1.015 -0.156c0.308 -0.104 0.571 -0.261 0.789 -0.469c0.219 -0.208 0.386 -0.464 0.5 -0.766l3.079 0.203c-0.157 0.74 -0.477 1.386 -0.961 1.938c-0.479 0.547 -1.099 0.974 -1.86 1.281c-0.755 0.302 -1.627 0.453 -2.617 0.453zm12.102 -0.039c-0.912 0 -1.737 -0.234 -2.477 -0.703c-0.734 -0.474 -1.318 -1.169 -1.75 -2.086c-0.427 -0.922 -0.641 -2.052 -0.641 -3.39c0 -1.375 0.222 -2.519 0.665 -3.43c0.442 -0.917 1.031 -1.6016 1.765 -2.0547c0.74 -0.4584 1.55 -0.6875 2.43 -0.6875c0.672 0 1.232 0.1145 1.68 0.3437c0.453 0.224 0.817 0.5052 1.093 0.8435c0.282 0.334 0.495 0.662 0.641 0.985l0.101 0l0 -6.016l3.321 0l0 16l-3.281 0l0 -1.922l-0.141 0c-0.156 0.333 -0.378 0.664 -0.664 0.992c-0.281 0.323 -0.649 0.591 -1.102 0.805c-0.448 0.214 -0.994 0.32 -1.64 0.32zm1.054 -2.648c0.537 0 0.99 -0.146 1.36 -0.438c0.375 -0.297 0.661 -0.711 0.859 -1.242c0.203 -0.531 0.305 -1.153 0.305 -1.867c0 -0.714 -0.099 -1.333 -0.297 -1.859c-0.198 -0.526 -0.484 -0.933 -0.859 -1.219c-0.375 -0.287 -0.831 -0.43 -1.368 -0.43c-0.547 0 -1.007 0.149 -1.382 0.445c-0.375 0.297 -0.659 0.709 -0.852 1.235c-0.193 0.526 -0.289 1.135 -0.289 1.828c0 0.698 0.096 1.315 0.289 1.852c0.198 0.531 0.482 0.947 0.852 1.25c0.375 0.296 0.835 0.445 1.382 0.445zm13.664 2.453l0 -16l6.407 0c1.177 0 2.159 0.1745 2.945 0.5234c0.786 0.349 1.378 0.8334 1.773 1.4532c0.396 0.6145 0.594 1.3229 0.594 2.125c0 0.625 -0.125 1.1744 -0.375 1.6484c-0.25 0.469 -0.594 0.854 -1.031 1.156c-0.432 0.297 -0.927 0.508 -1.484 0.633l0 0.156c0.609 0.026 1.179 0.198 1.71 0.516c0.537 0.318 0.972 0.763 1.305 1.336c0.334 0.568 0.5 1.245 0.5 2.031c0 0.849 -0.211 1.607 -0.633 2.274c-0.416 0.661 -1.033 1.184 -1.851 1.57c-0.818 0.385 -1.826 0.578 -3.024 0.578l-6.836 0zm3.383 -2.766l2.758 0c0.943 0 1.63 -0.179 2.063 -0.539c0.432 -0.364 0.648 -0.849 0.648 -1.453c0 -0.443 -0.107 -0.833 -0.32 -1.172c-0.214 -0.338 -0.519 -0.604 -0.914 -0.797c-0.391 -0.192 -0.857 -0.289 -1.399 -0.289l-2.836 0l0 4.25zm0 -6.539l2.508 0c0.464 0 0.875 -0.08 1.234 -0.242c0.365 -0.167 0.651 -0.401 0.86 -0.703c0.213 -0.302 0.32 -0.664 0.32 -1.0859c0 -0.5782 -0.206 -1.0443 -0.617 -1.3985c-0.406 -0.3541 -0.984 -0.5312 -1.734 -0.5312l-2.571 0l0 3.9606zm13.155 13.805c-0.422 0 -0.818 -0.034 -1.188 -0.102c-0.365 -0.062 -0.667 -0.143 -0.906 -0.242l0.75 -2.484c0.39 0.12 0.742 0.185 1.054 0.195c0.318 0.011 0.592 -0.062 0.821 -0.219c0.234 -0.156 0.424 -0.421 0.57 -0.796l0.195 -0.508l-4.304 -12.344l3.5 0l2.484 8.812l0.125 0l2.508 -8.812l3.523 0l-4.664 13.297c-0.224 0.646 -0.528 1.208 -0.914 1.687c-0.38 0.485 -0.862 0.857 -1.445 1.118c-0.583 0.265 -1.287 0.398 -2.109 0.398z"></path><path fill="none" stroke="#1b1b1b" stroke-linejoin="round" d="m89.7651 90.5l-154 0l0 -117.5"></path><path fill="none" stroke="url('#eaf-5c32-34')" stroke-linejoin="round" d="m255.75 59.0737l-0.069 -11.8138l448.839 -2.6168"></path><path fill="none" stroke="url('#eaf-5c32-35')" stroke-linejoin="round" d="m-215.999 110.756l-0.001 0.082l305.8127 1.883"></path><path fill="none" stroke="#1b1b1b" stroke-linejoin="round" d="m312.196 163.249l-56.425 0.017l-0.005 -18.25"></path><path fill="none" stroke="url('#eaf-5c32-36')" stroke-linejoin="round" d="m310.357 181.181l-79.581 0.023l-0.011 -36.183"></path><path fill="none" stroke="url('#eaf-5c32-37')" stroke-linejoin="round" d="m293.741 89.8311l251.717 1.1394l-0.923 203.8335"></path><path fill="none" stroke="url('#eaf-5c32-38')" stroke-linejoin="round" d="m44.4584 19.0356l82.4656 0.3421l-0.165 39.6915"></path><path fill="none" stroke="#1b1b1b" stroke-linejoin="round" d="m204.765 210l0 -65"></path><path fill="none" stroke="url('#eaf-5c32-39')" stroke-linejoin="round" d="m152.765 302.5l0 -157"></path><path fill="none" stroke="#1b1b1b" stroke-linejoin="round" d="m178.765 181l0 -36"></path><path fill="none" stroke="#1b1b1b" stroke-linejoin="round" d="m204.765 59l0 -38"></path><ellipse fill="#000" stroke="#1b1b1b" rx="3.5" ry="3.5" transform="translate(41.7651 19)"></ellipse><ellipse fill="#000" stroke="#1b1b1b" rx="3.5" ry="3.5" transform="translate(178.765 181)"></ellipse><ellipse fill="#000" stroke="#1b1b1b" rx="3.5" ry="3.5" transform="translate(204.765 209)"></ellipse><ellipse fill="#000" stroke="#1b1b1b" rx="3.5" ry="3.5" transform="translate(312.765 181)"></ellipse><ellipse fill="#000" stroke="#1b1b1b" rx="3.5" ry="3.5" transform="translate(312.765 163)"></ellipse><ellipse fill="#000" stroke="#1b1b1b" rx="3.5" ry="3.5" transform="translate(204.765 19)"></ellipse></g></g></g></g></svg>